0
SECTION
2
HEADER
9
$INSUNITS
70
1
9
$ACADVER
1
AC1014
9
$HANDSEED
5
FFFF
0
ENDSEC
0
SECTION
2
TABLES
0
TABLE
2
VPORT
5
8
100
AcDbSymbolTable
0
ENDTAB
0
TABLE
2
LTYPE
5
5
100
AcDbSymbolTable
0
LTYPE
5
14
100
AcDbSymbolTableRecord
100
AcDbLinetypeTableRecord
2
BYBLOCK
70
0
0
LTYPE
5
15
100
AcDbSymbolTableRecord
100
AcDbLinetypeTableRecord
2
BYLAYER
70
0
0
ENDTAB
0
TABLE
2
LAYER
5
2
100
AcDbSymbolTable
70
2
0
LAYER
5
50
100
AcDbSymbolTableRecord
100
AcDbLayerTableRecord
2
0
70
0
6
CONTINUOUS
0
ENDTAB
0
TABLE
2
STYLE
5
3
100
AcDbSymbolTable
70
1
0
STYLE
5
11
100
AcDbSymbolTableRecord
100
AcDbTextStyleTableRecord
2
STANDARD
70
0
0
ENDTAB
0
TABLE
2
VIEW
5
6
100
AcDbSymbolTable
70
0
0
ENDTAB
0
TABLE
2
UCS
5
7
100
AcDbSymbolTable
70
0
0
ENDTAB
0
TABLE
2
APPID
5
9
100
AcDbSymbolTable
70
2
0
APPID
5
12
100
AcDbSymbolTableRecord
100
AcDbRegAppTableRecord
2
ACAD
70
0
0
ENDTAB
0
TABLE
2
DIMSTYLE
5
A
100
AcDbSymbolTable
70
1
0
ENDTAB
0
TABLE
2
BLOCK_RECORD
5
1
100
AcDbSymbolTable
70
1
0
BLOCK_RECORD
5
1F
100
AcDbSymbolTableRecord
100
AcDbBlockTableRecord
2
*MODEL_SPACE
0
BLOCK_RECORD
5
1B
100
AcDbSymbolTableRecord
100
AcDbBlockTableRecord
2
*PAPER_SPACE
0
ENDTAB
0
ENDSEC
0
SECTION
2
BLOCKS
0
BLOCK
5
20
100
AcDbEntity
100
AcDbBlockBegin
2
*MODEL_SPACE
0
ENDBLK
5
21
100
AcDbEntity
100
AcDbBlockEnd
0
BLOCK
5
1C
100
AcDbEntity
100
AcDbBlockBegin
2
*PAPER_SPACE
0
ENDBLK
5
1D
100
AcDbEntity
100
AcDbBlockEnd
0
ENDSEC
0
SECTION
2
ENTITIES
0
LWPOLYLINE
5
100
100
AcDbEntity
8
0
100
AcDbPolyline
90
18
70
1
43
0.0
10
-0.65000002074429364
20
-2.1749999999999998
10
-0.35000002074429365
20
-2.1749999999999998
10
-0.35000002074429365
20
-1.4499999999999997
10
-0.65000002074429364
20
-1.4499999999999997
10
-0.65000002074429364
20
-0.72499999999999987
10
-0.35000002074429365
20
-0.72499999999999987
10
-0.35000002074429365
20
0
10
-0.65000002074429364
20
0
10
-0.65000002074429353
20
0.19999999999999998
10
0.64999999999999991
20
0.19999999999999998
10
0.64999999999999991
20
-0.72499999999999987
10
0.34999997925570631
20
-0.72499999999999987
10
0.34999997925570631
20
-1.4499999999999997
10
0.64999999999999991
20
-1.4499999999999997
10
0.64999999999999991
20
-2.1749999999999998
10
0.34999997925570631
20
-2.1749999999999998
10
0.34999997925570631
20
-2.8999999999999995
10
-0.65000002074429364
20
-2.8999999999999995
0
CIRCLE
5
101
100
AcDbEntity
8
0
100
AcDbCircle
10
-2.0744293684390814e-08
20
-1.3304999999999998
30
0
40
0.49999999999999989
0
CIRCLE
5
102
100
AcDbEntity
8
0
100
AcDbCircle
10
-0.22500002074429368
20
-1.3304999999999998
30
0
40
0.049999999999999996
0
CIRCLE
5
103
100
AcDbEntity
8
0
100
AcDbCircle
10
0.22499997925570631
20
-1.3304999999999998
30
0
40
0.049999999999999996
0
CIRCLE
5
104
100
AcDbEntity
8
0
100
AcDbCircle
10
-2.0744293684390814e-08
20
-1.3304999999999998
30
0
40
0.115
0
CIRCLE
5
105
100
AcDbEntity
8
0
100
AcDbCircle
10
-0.50000002074429362
20
-1.3304999999999998
30
0
40
0.062499999999999972
0
CIRCLE
5
106
100
AcDbEntity
8
0
100
AcDbCircle
10
-2.0744293684390814e-08
20
-1.3304999999999998
30
0
40
0.39999999999999997
0
LINE
5
107
100
AcDbEntity
8
0
100
AcDbLine
10
0.05499997925570646
20
-1.8304999999999996
30
0
11
0.05499997925570646
21
-1.9054999999999995
31
0
0
LINE
5
108
100
AcDbEntity
8
0
100
AcDbLine
10
-0.055000020744293832
20
-1.8304999999999996
30
0
11
-0.055000020744293832
21
-1.9054999999999995
31
0
0
LINE
5
109
100
AcDbEntity
8
0
100
AcDbLine
10
-0.055000020744293832
20
-1.9554999999999993
30
0
11
0.05499997925570646
21
-1.9554999999999993
31
0
0
ARC
5
110
100
AcDbEntity
8
0
100
AcDbCircle
10
-2.0744293684390814e-08
20
-1.8304999999999996
30
0
40
0.062500000000000153
100
AcDbArc
50
3.5833216984719058
51
176.41667830152812
0
ARC
5
111
100
AcDbEntity
8
0
100
AcDbCircle
10
-2.0744293684390814e-08
20
-1.8304999999999996
30
0
40
0.055000000000000146
100
AcDbArc
50
0
51
180
0
LINE
5
112
100
AcDbEntity
8
0
100
AcDbLine
10
0.99999997925570616
20
-2.3304999999999993
30
0
11
-1.0000000207442936
21
-2.3304999999999993
31
0
0
LINE
5
113
100
AcDbEntity
8
0
100
AcDbLine
10
-1.0000000207442936
20
-2.3304999999999993
30
0
11
-1.0000000207442936
21
-0.33050000000000013
31
0
0
LINE
5
114
100
AcDbEntity
8
0
100
AcDbLine
10
-1.0000000207442936
20
-0.33050000000000013
30
0
11
0.99999997925570616
21
-0.33050000000000013
31
0
0
LINE
5
115
100
AcDbEntity
8
0
100
AcDbLine
10
0.99999997925570616
20
-0.33050000000000013
30
0
11
0.99999997925570616
21
-2.3304999999999993
31
0
0
LINE
5
116
100
AcDbEntity
8
0
100
AcDbLine
10
0.99999997925570616
20
-2.3304999999999993
30
0
11
-1.0000000207442936
21
-0.33050000000000013
31
0
0
LINE
5
117
100
AcDbEntity
8
0
100
AcDbLine
10
-1.0000000207442936
20
-2.3304999999999993
30
0
11
0.99999997925570616
21
-0.33050000000000013
31
0
0
LWPOLYLINE
5
118
100
AcDbEntity
8
0
100
AcDbPolyline
90
4
70
1
43
0.0
10
0.62499997925570616
20
-1.3854999999999997
10
0.49999997925570622
20
-1.3854999999999997
42
-0.99999999999999989
10
0.49999997925570622
20
-1.2754999999999996
10
0.62499997925570616
20
-1.2754999999999996
0
ARC
5
119
100
AcDbEntity
8
0
100
AcDbCircle
10
0.49999997925570622
20
-1.3304999999999998
30
0
40
0.06249999999999991
100
AcDbArc
50
93.583321698472034
51
266.41667830152795
0
LWPOLYLINE
5
120
100
AcDbEntity
8
0
100
AcDbPolyline
90
4
70
1
43
0.0
10
0.054999979255706322
20
-0.70550000000000002
10
0.054999979255706322
20
-0.8304999999999999
42
-0.99999999999999989
10
-0.055000020744293686
20
-0.8304999999999999
10
-0.055000020744293686
20
-0.70550000000000002
0
ARC
5
121
100
AcDbEntity
8
0
100
AcDbCircle
10
-2.0744293684390814e-08
20
-0.8304999999999999
30
0
40
0.062499999999999972
100
AcDbArc
50
183.58332169847191
51
356.41667830152812
0
LINE
5
122
100
AcDbEntity
8
0
100
AcDbLine
10
-2.0744293684390814e-08
20
-2.2854999999999994
30
0
11
0.099999979255706306
21
-2.2854999999999994
31
0
0
LINE
5
123
100
AcDbEntity
8
0
100
AcDbLine
10
0.099999979255706306
20
-1.9554999999999993
30
0
11
-2.0744293684390814e-08
21
-1.9554999999999993
31
0
0
LINE
5
124
100
AcDbEntity
8
0
100
AcDbLine
10
-2.0744293684390814e-08
20
-2.2854999999999994
30
0
11
-0.10000002074429368
21
-2.2854999999999994
31
0
0
LINE
5
125
100
AcDbEntity
8
0
100
AcDbLine
10
-0.10000002074429368
20
-1.9554999999999993
30
0
11
-2.0744293684390814e-08
21
-1.9554999999999993
31
0
0
LINE
5
126
100
AcDbEntity
8
0
100
AcDbLine
10
0.62499997925570616
20
-1.3304999999999998
30
0
11
0.62499997925570616
21
-1.4304999999999997
31
0
0
LINE
5
127
100
AcDbEntity
8
0
100
AcDbLine
10
0.62499997925570616
20
-1.3304999999999998
30
0
11
0.62499997925570616
21
-1.2304999999999997
31
0
0
LINE
5
128
100
AcDbEntity
8
0
100
AcDbLine
10
-2.0744293684390814e-08
20
-0.37549999999999994
30
0
11
0.099999979255706306
21
-0.37549999999999994
31
0
0
LINE
5
129
100
AcDbEntity
8
0
100
AcDbLine
10
0.099999979255706306
20
-0.70550000000000002
30
0
11
-2.0744293684390814e-08
21
-0.70550000000000002
31
0
0
LINE
5
130
100
AcDbEntity
8
0
100
AcDbLine
10
-2.0744293684390814e-08
20
-0.37549999999999994
30
0
11
-0.10000002074429368
21
-0.37549999999999994
31
0
0
LINE
5
131
100
AcDbEntity
8
0
100
AcDbLine
10
-2.0744293684390814e-08
20
-1.9554999999999993
30
0
11
0.099999998791480624
21
-1.9554999999999993
31
0
0
LINE
5
132
100
AcDbEntity
8
0
100
AcDbLine
10
0.099999998791480624
20
-1.9554999999999993
30
0
11
0.099999998791480624
21
-1.9054999999999995
31
0
0
LINE
5
133
100
AcDbEntity
8
0
100
AcDbLine
10
0.099999998791480624
20
-1.9054999999999995
30
0
11
0.05499997925570646
21
-1.9054999999999995
31
0
0
LINE
5
134
100
AcDbEntity
8
0
100
AcDbLine
10
-2.0744293684390814e-08
20
-1.9554999999999993
30
0
11
-0.099999998791480624
21
-1.9554999999999993
31
0
0
LINE
5
135
100
AcDbEntity
8
0
100
AcDbLine
10
-0.099999998791480624
20
-1.9554999999999993
30
0
11
-0.099999998791480624
21
-1.9054999999999995
31
0
0
LINE
5
136
100
AcDbEntity
8
0
100
AcDbLine
10
-0.099999998791480624
20
-1.9054999999999995
30
0
11
-0.055000020744293832
21
-1.9054999999999995
31
0
0
LINE
5
137
100
AcDbEntity
8
0
100
AcDbLine
10
-0.10999999867062868
20
-1.9554999999999993
30
0
11
-0.1099999987914806
21
-1.8954999999999995
31
0
0
LINE
5
138
100
AcDbEntity
8
0
100
AcDbLine
10
-0.1099999987914806
20
-1.8954999999999995
30
0
11
-0.065000020744293827
21
-1.8954999999999995
31
0
0
LINE
5
139
100
AcDbEntity
8
0
100
AcDbLine
10
-0.065000020744293827
20
-1.8304999999999996
30
0
11
-0.065000020744293827
21
-1.8954999999999995
31
0
0
LINE
5
140
100
AcDbEntity
8
0
100
AcDbLine
10
0.064999979255706455
20
-1.8304999999999996
30
0
11
0.064999979255706455
21
-1.8954999999999995
31
0
0
LINE
5
141
100
AcDbEntity
8
0
100
AcDbLine
10
0.1099999987914806
20
-1.8954999999999995
30
0
11
0.064999979255706455
21
-1.8954999999999995
31
0
0
LINE
5
142
100
AcDbEntity
8
0
100
AcDbLine
10
0.10999999867062868
20
-1.9554999999999993
30
0
11
0.1099999987914806
21
-1.8954999999999995
31
0
0
ARC
5
143
100
AcDbEntity
8
0
100
AcDbCircle
10
-2.0744293684390814e-08
20
-1.8304999999999996
30
0
40
0.065000000000000141
100
AcDbArc
50
0
51
3.7268531424822791
0
ARC
5
144
100
AcDbEntity
8
0
100
AcDbCircle
10
-2.0744293684390814e-08
20
-1.8304999999999996
30
0
40
0.065000000000000141
100
AcDbArc
50
176.2731468575177
51
180
0
LINE
5
145
100
AcDbEntity
8
0
100
AcDbLine
10
-0.099999998791480624
20
-1.9554999999999993
30
0
11
-0.10000002074429368
21
-1.9554999999999993
31
0
0
LINE
5
146
100
AcDbEntity
8
0
100
AcDbLine
10
0.10999999867062868
20
-1.9554999999999993
30
0
11
0.10999999867062868
21
-2.2854999999999994
31
0
0
LINE
5
147
100
AcDbEntity
8
0
100
AcDbLine
10
0.10999999867062868
20
-2.2854999999999994
30
0
11
0.099999979255706306
21
-2.2854999999999994
31
0
0
LINE
5
148
100
AcDbEntity
8
0
100
AcDbLine
10
-0.10999999867062868
20
-1.9554999999999993
30
0
11
-0.10999999867062868
21
-2.2854999999999994
31
0
0
LINE
5
149
100
AcDbEntity
8
0
100
AcDbLine
10
-0.10999999867062868
20
-2.2854999999999994
30
0
11
-0.10000002074429368
21
-2.2854999999999994
31
0
0
ARC
5
150
100
AcDbEntity
8
0
100
AcDbCircle
10
0.49999997925570622
20
-1.3304999999999998
30
0
40
0.064999999999999919
100
AcDbArc
50
90
51
93.726853142482227
0
ARC
5
151
100
AcDbEntity
8
0
100
AcDbCircle
10
0.49999997925570622
20
-1.3304999999999998
30
0
40
0.064999999999999988
100
AcDbArc
50
266.2731468575177
51
270
0
LINE
5
152
100
AcDbEntity
8
0
100
AcDbLine
10
0.61499997925570615
20
-1.4404999999999997
30
0
11
0.95499997925570612
21
-1.4404999999999997
31
0
0
LINE
5
153
100
AcDbEntity
8
0
100
AcDbLine
10
0.61499997925570615
20
-1.2204999999999997
30
0
11
0.95499997925570612
21
-1.2204999999999997
31
0
0
LINE
5
154
100
AcDbEntity
8
0
100
AcDbLine
10
0.61499997925570615
20
-1.2654999999999998
30
0
11
0.61499997925570615
21
-1.2204999999999997
31
0
0
LINE
5
155
100
AcDbEntity
8
0
100
AcDbLine
10
0.49999997925570622
20
-1.2654999999999998
30
0
11
0.61499997925570615
21
-1.2654999999999998
31
0
0
LINE
5
156
100
AcDbEntity
8
0
100
AcDbLine
10
0.49999997925570622
20
-1.3954999999999995
30
0
11
0.61499997925570615
21
-1.3954999999999995
31
0
0
LINE
5
157
100
AcDbEntity
8
0
100
AcDbLine
10
0.61499997925570615
20
-1.3954999999999995
30
0
11
0.61499997925570615
21
-1.4404999999999997
31
0
0
LINE
5
158
100
AcDbEntity
8
0
100
AcDbLine
10
0.064999979255706317
20
-0.8304999999999999
30
0
11
0.064999979255706317
21
-0.71550000000000002
31
0
0
ARC
5
159
100
AcDbEntity
8
0
100
AcDbCircle
10
-2.0744293684390814e-08
20
-0.8304999999999999
30
0
40
0.065000000000000002
100
AcDbArc
50
180
51
183.72685314248207
0
ARC
5
160
100
AcDbEntity
8
0
100
AcDbCircle
10
-2.0744293684390814e-08
20
-0.8304999999999999
30
0
40
0.065000000000000002
100
AcDbArc
50
-3.7268531424821032
51
0
0
LINE
5
161
100
AcDbEntity
8
0
100
AcDbLine
10
0.10999999867062868
20
-0.37549999999999994
30
0
11
0.1099999792557063
21
-0.71550000000000002
31
0
0
LINE
5
162
100
AcDbEntity
8
0
100
AcDbLine
10
-0.10999999867062868
20
-0.37549999999999994
30
0
11
-0.11000002074429367
21
-0.71550000000000002
31
0
0
LINE
5
163
100
AcDbEntity
8
0
100
AcDbLine
10
-0.11000002074429367
20
-0.71550000000000002
30
0
11
-0.065000020744293688
21
-0.71550000000000002
31
0
0
LINE
5
164
100
AcDbEntity
8
0
100
AcDbLine
10
-0.065000020744293688
20
-0.8304999999999999
30
0
11
-0.065000020744293688
21
-0.71550000000000002
31
0
0
LINE
5
165
100
AcDbEntity
8
0
100
AcDbLine
10
-0.10000002074429368
20
-0.70550000000000002
30
0
11
-0.065000020744293688
21
-0.70550000000000002
31
0
0
LINE
5
166
100
AcDbEntity
8
0
100
AcDbLine
10
-0.055000020744293686
20
-0.70550000000000002
30
0
11
-2.0744293684390814e-08
21
-0.70550000000000002
31
0
0
LINE
5
167
100
AcDbEntity
8
0
100
AcDbLine
10
0.1099999792557063
20
-0.71550000000000002
30
0
11
0.064999979255706317
21
-0.71550000000000002
31
0
0
LINE
5
168
100
AcDbEntity
8
0
100
AcDbLine
10
0.099999979255706306
20
-0.37549999999999994
30
0
11
0.10999999867062868
21
-0.37549999999999994
31
0
0
LINE
5
169
100
AcDbEntity
8
0
100
AcDbLine
10
-0.10000002074429368
20
-0.37549999999999994
30
0
11
-0.10999999867062868
21
-0.37549999999999994
31
0
0
LINE
5
170
100
AcDbEntity
8
0
100
AcDbLine
10
0.95499997925570612
20
-1.2204999999999997
30
0
11
0.95499997925570612
21
-1.4404999999999997
31
0
0
LINE
5
171
100
AcDbEntity
8
0
100
AcDbLine
10
-2.0744293684390814e-08
20
-1.7304999999999997
30
0
11
-1.0000000319142979
21
-1.7304999999999997
31
0
0
LINE
5
172
100
AcDbEntity
8
0
100
AcDbLine
10
-2.0744293684390814e-08
20
-1.8304999999999996
30
0
11
-0.99999998791480615
21
-1.8304999999999996
31
0
0
LINE
5
173
100
AcDbEntity
8
0
100
AcDbLine
10
-2.0744293684390814e-08
20
-0.8304999999999999
30
0
11
-1.0000000319142979
21
-0.8304999999999999
31
0
0
LINE
5
174
100
AcDbEntity
8
0
100
AcDbLine
10
-2.0744293684390814e-08
20
-0.93049999999999977
30
0
11
-0.99999998791480615
21
-0.93049999999999977
31
0
0
LINE
5
175
100
AcDbEntity
8
0
100
AcDbLine
10
-1.0000000207442936
20
-2.3304999999999993
30
0
11
-1.5000000207442936
21
-2.3304999999999993
31
0
0
LINE
5
176
100
AcDbEntity
8
0
100
AcDbLine
10
-1.5000000207442936
20
-2.3304999999999993
30
0
11
-1.5000000207442936
21
-0.33050000000000013
31
0
0
LINE
5
177
100
AcDbEntity
8
0
100
AcDbLine
10
-1.5000000207442936
20
-0.33050000000000013
30
0
11
-1.0000000207442936
21
-0.33050000000000013
31
0
0
LINE
5
178
100
AcDbEntity
8
0
100
AcDbLine
10
-1.0000000207442936
20
-0.33050000000000013
30
0
11
-1.0000000207442936
21
-2.3304999999999993
31
0
0
LINE
5
179
100
AcDbEntity
8
0
100
AcDbLine
10
-1.0000000319142979
20
-1.7304999999999997
30
0
11
-1.5000000207442936
21
-1.7304999999999997
31
0
0
LINE
5
180
100
AcDbEntity
8
0
100
AcDbLine
10
-0.99999998791480615
20
-0.93049999999999977
30
0
11
-1.5000000207442936
21
-0.93049999999999977
31
0
0
LINE
5
181
100
AcDbEntity
8
0
100
AcDbLine
10
-1.5000000207442936
20
-2.3304999999999993
30
0
11
-1.3500000207442937
21
-2.3304999999999993
31
0
0
LINE
5
182
100
AcDbEntity
8
0
100
AcDbLine
10
-1.5000000207442936
20
-2.180499999999999
30
0
11
-1.5000000207442936
21
-2.3304999999999993
31
0
0
CIRCLE
5
183
100
AcDbEntity
8
0
100
AcDbCircle
10
-1.3500000207442937
20
-2.180499999999999
30
0
40
0.050000000000000037
0
LINE
5
184
100
AcDbEntity
8
0
100
AcDbLine
10
0.99999997925570616
20
-2.3304999999999993
30
0
11
0.84999997925570603
21
-2.3304999999999993
31
0
0
LINE
5
185
100
AcDbEntity
8
0
100
AcDbLine
10
0.99999997925570616
20
-2.180499999999999
30
0
11
0.99999997925570616
21
-2.3304999999999993
31
0
0
LINE
5
186
100
AcDbEntity
8
0
100
AcDbLine
10
0.99999997925570616
20
-0.33050000000000013
30
0
11
0.84999997925570625
21
-0.33050000000000013
31
0
0
LINE
5
187
100
AcDbEntity
8
0
100
AcDbLine
10
0.99999997925570616
20
-0.48050000000000009
30
0
11
0.99999997925570616
21
-0.33050000000000013
31
0
0
LINE
5
188
100
AcDbEntity
8
0
100
AcDbLine
10
-1.5000000207442936
20
-0.33050000000000013
30
0
11
-1.3500000207442937
21
-0.33050000000000013
31
0
0
LINE
5
189
100
AcDbEntity
8
0
100
AcDbLine
10
-1.5000000207442936
20
-0.48050000000000009
30
0
11
-1.5000000207442936
21
-0.33050000000000013
31
0
0
CIRCLE
5
190
100
AcDbEntity
8
0
100
AcDbCircle
10
0.84999997925570603
20
-2.180499999999999
30
0
40
0.049999999999999996
0
CIRCLE
5
191
100
AcDbEntity
8
0
100
AcDbCircle
10
0.84999997925570625
20
-0.48050000000000009
30
0
40
0.04999999999999994
0
CIRCLE
5
192
100
AcDbEntity
8
0
100
AcDbCircle
10
-1.3500000207442937
20
-0.48050000000000009
30
0
40
0.049999999999999906
0
ENDSEC
0
SECTION
2
OBJECTS
0
DICTIONARY
5
C
100
AcDbDictionary
3
ACAD_GROUP
350
D
3
ACAD_MLINESTYLE
350
17
0
DICTIONARY
5
D
100
AcDbDictionary
0
DICTIONARY
5
1A
330
C
100
AcDbDictionary
0
DICTIONARY
5
17
100
AcDbDictionary
0
ENDSEC
0
EOF
